# AST/ASF file generated using VICON BodyLanguage
# -----------------------------------------------
:version 1.10
:name VICON
:units
  mass 1.0
  length 0.45
  angle deg
:documentation
   .ast/.asf automatically generated from VICON data using
   VICON BodyBuilder and BodyLanguage model FoxedUp or BRILLIANT.MOD
:root
   order TX TY TZ RX RY RZ
   axis XYZ
   position 0 0 0  
   orientation 0 0 0 
:bonedata
  begin
     id 1 
     name lhipjoint
     direction 0.671379 -0.66392 0.329334 
     length 2.38647 
     axis 0 0 0  XYZ
  end
  begin
     id 2 
     name lfemur
     direction 0.34202 -0.939693 0  
     length 6.48179  
     axis 0 0 20  XYZ
    dof rx ry rz
    limits (-160.0 20.0)
           (-70.0 70.0)
           (-60.0 70.0)
  end
  begin
     id 3 
     name ltibia
     direction 0.34202 -0.939693 0   
     length 6.86524   
     axis 0 0 20   XYZ
    dof rx
    limits (-10.0 170.0)
  end
  begin
     id 4 
     name lfoot
     direction 0.204886 -0.562919 0.800715   
     length 1.73031   
     axis -90 7.62852e-016 20   XYZ
    dof rx rz
    limits (-45.0 90.0)
           (-70.0 20.0)
  end
  begin
     id 5 
     name ltoes
     direction 1.53548e-011 -4.21841e-011 1   
     length 0.828161   
     axis -90 7.62852e-016 20   XYZ
    dof rx
    limits (-90.0 20.0)
  end
  begin
     id 6 
     name rhipjoint
     direction -0.662732 -0.670855 0.332775   
     length 2.3618  
     axis 0 0 0  XYZ 
  end
  begin
     id 7 
     name rfemur
     direction -0.34202 -0.939693 0   
     length 6.3025   
     axis 0 0 -20   XYZ
    dof rx ry rz
    limits (-160.0 20.0)
           (-70.0 70.0)
           (-70.0 60.0)
  end
  begin
     id 8 
     name rtibia
     direction -0.34202 -0.939693 0   
     length 6.8732   
     axis 0 0 -20   XYZ
    dof rx
    limits (-10.0 170.0)
 end
 begin
     id 9 
     name rfoot
     direction -0.173856 -0.477665 0.861168   
     length 1.54784  
     axis -90 -7.62852e-016 -20   XYZ
    dof rx rz
    limits (-45.0 90.0)
           (-20.0 70.0)
  end
  begin
     id 10 
     name rtoes
     direction -1.53562e-011 -4.21802e-011 1   
     length 0.759618   
     axis -90 -7.62852e-016 -20   XYZ
    dof rx
    limits (-90.0 20.0)
  end
  begin
     id 11 
     name lowerback
     direction -0.0278357 0.999497 -0.0151789   
     length 1.97203   
     axis 0 0 0   XYZ
    dof rx ry rz
    limits (-20.0 45.0)
           (-30.0 30.0)
           (-30.0 30.0)
  end
  begin
     id 12 
     name upperback
     direction -0.00360622 0.997542 0.0699804   
     length 1.94709   
     axis 0 0 0   XYZ
    dof rx ry rz
    limits (-20.0 45.0)
           (-30.0 30.0)
           (-30.0 30.0)
  end
  begin
     id 13 
     name thorax
     direction 0.00907706 0.997048 0.0762461   
     length 1.95722   
     axis 0 0 0   XYZ
    dof rx ry rz
    limits (-20.0 45.0)
           (-30.0 30.0)
           (-30.0 30.0)
  end
  begin
     id 14 
     name lowerneck
     direction -0.0481835 0.99872 -0.0153927   
     length 1.63078   
     axis 0 0 0   XYZ
    dof rx ry rz
    limits (-20.0 45.0)
           (-30.0 30.0)
           (-30.0 30.0)
  end
  begin
     id 15 
     name upperneck
     direction 0.0859716 0.979226 -0.183644   
     length 1.62591   
     axis 0 0 0   XYZ
    dof rx ry rz
    limits (-20.0 45.0)
           (-30.0 30.0)
           (-30.0 30.0)
  end
  begin
     id 16
     name head
     direction 0.0324821 0.997629 -0.0606773  
     length 1.64811  
     axis 0 0 0   XYZ
    dof rx ry rz
    limits (-20.0 45.0)
           (-30.0 30.0)
           (-30.0 30.0)
  end
  begin
     id 17 
     name lclavicle
     direction 0.939609 0.311019 0.142835  
     length 3.70647  
     axis 0 0 0   XYZ
    dof ry rz
    limits (-20.0 10.0)
           (0.0 20.0)
  end
  begin
     id 18 
     name lhumerus
     direction 1 -4.48963e-011 -1.59838e-027   
     length 4.59207   
     axis 180 -30 -90   XYZ
    dof rx ry rz
    limits (-60.0 90.0)
           (-90.0 90.0)
           (-90.0 90.0)
  end
  begin
     id 19
     name lradius
     direction 1 -4.48957e-011 -1.3483e-026   
     length 2.98109   
     axis 180 -30 -90   XYZ
    dof rx
    limits (-10.0 170.0)
  end
  begin
     id 20
     name lwrist
     direction 1 -4.48954e-011 -3.11579e-026   
     length 1.49055   
     axis 2.00652e-014 90 90   XYZ
    dof ry
    limits (-180.0 0.0)
 end
  begin
     id 21 
     name lhand
     direction 1 -4.4911e-011 -6.23158e-026   
     length 0.480203   
     axis 3.97628e-014 90 90   XYZ
    dof rx rz
    limits (-90.0 90.0)
           (-45.0 45.0)
  end
  begin
     id 22 
     name lfingers
     direction 1 -4.48893e-011 -1.24632e-025   
     length 0.387152   
     axis 7.95256e-014 90 90   XYZ
    dof rx
    limits (0.0 90.0)
  end
  begin
     id 23
     name lthumb
     direction 0.707107 -6.35013e-011 0.707107   
     length 0.555875   
     axis -90 45 2.85299e-015   XYZ
    dof rx rz
    limits (-45.0 45.0)
           (-45.0 45.0)
  end
  begin
     id 24 
     name rclavicle
     direction -0.950396 0.30392 0.0661859   
     length 3.70894  
     axis 0 0 0   XYZ 
    dof ry rz
    limits (-10.0 20.0)
           (-20.0 0.0)
  end
  begin
     id 25 
     name rhumerus
     direction -1 -4.48957e-011 -2.96677e-027  
     length 4.76508   
     axis 180 30 90   XYZ
    dof rx ry rz
    limits (-90.0 60.0)
           (-90.0 90.0)
           (-90.0 90.0)
  end
  begin
     id 26 
     name rradius
     direction -1 -4.48974e-011 -1.44501e-026   
     length 2.78902   
     axis 180 30 90   XYZ
    dof rx
    limits (-10.0 170.0)
  end
  begin
     id 27 
     name rwrist
     direction -1 -4.48978e-011 -3.11579e-026   
     length 1.39451   
     axis 2.00652e-014 -90 -90   XYZ
    dof ry
    limits (-180.0 0.0)
  end
  begin
     id 28
     name rhand
     direction -1 -4.48956e-011 -6.23158e-026   
     length 0.721303   
     axis 3.97628e-014 -90 -90   XYZ
    dof rx rz
    limits (-90.0 90.0)
           (-45.0 45.0)
  end
  begin
     id 29
     name rfingers
     direction -1 -4.4899e-011 -1.24632e-025   
     length 0.581533   
     axis 7.95256e-014 -90 -90   XYZ
    dof rx
    limits (0.0 90.0)
  end
  begin
     id 30
     name rthumb
     direction -0.707107 -6.34911e-011 0.707107   
     length 0.834968   
     axis -90 -45 -2.85299e-015   XYZ
    dof rx rz
    limits (-45.0 45.0)
           (-45.0 45.0)
  end
:hierarchy
  begin
    root lhipjoint rhipjoint lowerback
    lhipjoint lfemur
    lfemur ltibia
    ltibia lfoot
    lfoot ltoes
    rhipjoint rfemur
    rfemur rtibia
    rtibia rfoot
    rfoot rtoes
    lowerback upperback
    upperback thorax
    thorax lowerneck lclavicle rclavicle
    lowerneck upperneck
    upperneck head
    lclavicle lhumerus
    lhumerus lradius
    lradius lwrist
    lwrist lhand lthumb
    lhand lfingers
    rclavicle rhumerus
    rhumerus rradius
    rradius rwrist
    rwrist rhand rthumb
    rhand rfingers
  end

#!OML:ASF I:\salsa\salsa 7_09\Patient 1\Session 1\dancerfemale.ASF
:FULLY-SPECIFIED
:DEGREES
585
root 1.88836 15.622 -0.162422 373.845 279.533 -375.77
lowerback 7.81432 6.61067 6.6581
upperback -5.61048 9.52018 -1.81513
thorax -8.97473 4.12654 -6.99321
lowerneck 1.83198 -8.92751 -11.2012
upperneck 7.42322 -12.5774 7.83763
head 3.11594 -6.40996 3.75578
rclavicle -3.43897e-014 -1.19271e-014
rhumerus -68.4184 -24.5735 -66.9912
rradius 68.2667
rwrist 11.4028
rhand -3.3855 41.1878
rfingers 7.12502
rthumb 22.3439 12.4598
lclavicle -3.43897e-014 -1.19271e-014
lhumerus -48.7245 34.6295 54.0583
lradius 77.3302
lwrist -17.9458
lhand -42.9062 38.1224
lfingers 7.12502
lthumb -15.7681 67.5001
rfemur -6.74793 -14.0542 36.0851
rtibia 26.7326
rfoot -13.9666 22.2982
rtoes -4.82346
lfemur -43.3766 10.3682 -34.907
ltibia 61.0158
lfoot 17.2499 -7.46312
ltoes -36.0141
586
root 1.74146 15.6304 -0.249764 381.207 277.264 -381.898
lowerback 6.71124 7.06368 6.46556
upperback -6.31983 10.0152 -2.06885
thorax -9.01953 4.34931 -7.1035
lowerneck 1.66142 -8.44009 -10.7228
upperneck 7.90786 -11.9427 7.85124
head 3.19844 -6.08598 3.70814
rclavicle 1.04163e-013 5.56597e-015
rhumerus -68.5198 -24.5159 -66.6555
rradius 68.4034
rwrist 9.76065
rhand -3.59491 40.6957
rfingers 7.12502
rthumb 22.1429 11.9438
lclavicle 1.04163e-013 5.56597e-015
lhumerus -51.1833 34.2281 50.8997
lradius 77.8115
lwrist -17.9844
lhand -43.1442 38.7337
lfingers 7.12502
lthumb -15.9972 68.0932
rfemur -7.5385 -13.1104 36.7403
rtibia 27.2366
rfoot -13.0003 22.5321
rtoes -6.38968
lfemur -42.9933 10.5019 -36.0917
ltibia 61.3839
lfoot 19.8979 -6.17213
ltoes -33.8404
587
root 1.58257 15.653 -0.337632 387.418 275.006 -386.85
lowerback 5.1327 7.35911 5.44535
upperback -6.83587 10.1748 -2.30267
thorax -8.75916 4.49003 -6.61825
lowerneck 1.44238 -7.79679 -10.2075
upperneck 8.17672 -11.0762 7.83111
head 3.2014 -5.64203 3.65851
rclavicle -7.45443e-014 -3.57812e-014
rhumerus -68.2226 -24.1435 -66.5717
rradius 68.6862
rwrist 7.67403
rhand -4.00813 39.4432
rfingers 7.12502
rthumb 21.7462 10.6447
lclavicle -7.45443e-014 -3.57812e-014
lhumerus -54.029 34.6807 47.2552
lradius 77.9586
lwrist -17.7534
lhand -43.6403 40.2305
lfingers 7.12502
lthumb -16.4749 69.551
rfemur -8.37946 -12.0821 36.7218
rtibia 27.9831
rfoot -12.3412 22.198
rtoes -7.58359
lfemur -41.8412 9.70986 -37.2342
ltibia 60.6787
lfoot 16.1052 -4.11824
ltoes -30.6411
588
root 1.42595 15.6598 -0.431889 405.018 272.941 -403.177
lowerback 3.41399 7.62293 4.55145
upperback -7.27862 10.3235 -2.49297
thorax -8.33214 4.62769 -6.11994
lowerneck 1.15694 -7.16309 -9.70829
upperneck 8.30548 -10.2285 8.02994
head 3.19083 -5.19845 3.67361
rclavicle 8.64713e-014 2.22639e-014
rhumerus -67.9375 -24.0068 -66.3916
rradius 69.3331
rwrist 6.71929
rhand -3.78895 37.9688
rfingers 7.12502
rthumb 21.9566 9.19486
lclavicle 8.64713e-014 2.22639e-014
lhumerus -56.8101 35.5843 43.2892
lradius 77.6038
lwrist -17.4743
lhand -43.9495 41.4676
lfingers 7.12502
lthumb -16.7726 70.7631
rfemur -9.40343 -11.2812 36.9844
rtibia 29.0003
rfoot -12.1317 21.2191
rtoes -11.8664
lfemur -40.7924 8.11025 -37.2452
ltibia 58.9203
lfoot 10.8384 -0.30427
ltoes -16.1163
589
root 1.29425 15.659 -0.538797 461.143 271.992 -457.805
lowerback 1.66928 7.88725 3.69661
upperback -7.78778 10.5001 -2.65457
thorax -7.96781 4.76758 -5.61498
lowerneck 0.765717 -6.53885 -9.17223
upperneck 8.43943 -9.39534 8.30004
head 3.2044 -4.75534 3.6981
rclavicle 8.82604e-014 1.11319e-014
rhumerus -67.6063 -24.0323 -66.2614
rradius 69.9366
rwrist 6.94502
rhand -3.26576 36.6902
rfingers 7.12502
rthumb 22.4589 7.97607
lclavicle 8.82604e-014 1.11319e-014
lhumerus -59.635 36.8205 39.0069
lradius 76.9966
lwrist -17.4146
lhand -43.4303 41.6757
lfingers 7.12502
lthumb -16.2727 71.0128
rfemur -11.0825 -12.2701 37.4011
rtibia 30.5103
rfoot -11.21 21.7752
rtoes -16.2584
lfemur -40.7392 6.95708 -36.9868
ltibia 57.476
lfoot 7.57248 -0.352508
ltoes -10.715
590
root 1.18978 15.6859 -0.653022 513.148 273.032 -508.401
lowerback 0.445441 8.09504 2.50075
upperback -8.41255 10.6062 -3.00614
thorax -8.07373 4.85953 -5.22512
lowerneck 0.495421 -5.95705 -8.40439
upperneck 8.59084 -8.63572 8.48695
head 3.19868 -4.34725 3.65998
rclavicle -2.04748e-014 -2.62396e-014
rhumerus -67.3572 -23.9958 -66.3254
rradius 70.3398
rwrist 7.95789
rhand -2.9222 36.0255
rfingers 7.12502
rthumb 22.7886 7.35155
lclavicle -2.04748e-014 -2.62396e-014
lhumerus -62.1773 37.6742 34.6834
lradius 76.2638
lwrist -17.2693
lhand -42.7593 42.5245
lfingers 7.12502
lthumb -15.6265 71.9134
rfemur -13.0653 -13.0681 37.4464
rtibia 32.5046
rfoot -9.75865 22.4569
rtoes -18.2255
lfemur -41.3652 6.02802 -36.847
ltibia 56.5787
lfoot 4.94617 1.80937
ltoes -11.3639
591
root 1.11289 15.6835 -0.776045 536.203 274.719 -530.74
lowerback 0.253383 8.14923 0.956106
upperback -8.8984 10.519 -3.48354
thorax -8.69193 4.85963 -4.93824
lowerneck 0.271721 -5.36849 -7.58579
upperneck 8.65502 -7.87757 8.7453
head 3.16465 -3.93696 3.63566
rclavicle 1.14102e-013 7.15625e-015
rhumerus -66.8253 -23.5527 -66.8992
rradius 70.5306
rwrist 8.96034
rhand -3.12489 35.5417
rfingers 7.12502
rthumb 22.5941 6.84396
lclavicle 1.14102e-013 7.15625e-015
lhumerus -64.4338 38.0333 30.6273
lradius 75.3606
lwrist -17.0378
lhand -42.4586 43.5381
lfingers 7.12502
lthumb -15.337 72.9494
rfemur -14.794 -13.6374 36.9682
rtibia 35.0704
rfoot -8.32378 22.8473
rtoes -19.9384
lfemur -42.254 5.97895 -37.0802
ltibia 56.7415
lfoot 4.1839 3.49011
ltoes -8.25804
592
root 1.06576 15.6697 -0.914558 549.025 276.298 -543.628
lowerback 0.815998 8.09964 -0.834473
upperback -8.95143 10.2802 -4.03072
thorax -9.32259 4.81601 -4.66826
lowerneck -0.00204322 -4.88722 -6.75509
upperneck 8.33448 -7.23429 9.02982
head 3.03921 -3.58125 3.61156
rclavicle -3.18055e-015 8.74653e-015
rhumerus -66.4867 -24.3011 -66.6284
rradius 69.2227
rwrist 9.67292
rhand -3.84186 39.8044
rfingers 7.12502
rthumb 21.9058 11.0245
lclavicle -3.18055e-015 8.74653e-015
lhumerus -65.7328 38.2722 27.4538
lradius 74.0597
lwrist -17.0263
lhand -42.4026 43.9707
lfingers 7.12502
lthumb -15.283 73.3861
rfemur -16.102 -13.8905 36.1016
rtibia 37.9739
rfoot -7.30704 22.3445
rtoes -22.4668
lfemur -42.7115 6.1622 -37.3495
ltibia 57.4268
lfoot 4.35714 3.09073
ltoes -11.9665
593
root 1.0367 15.6384 -1.05732 557.277 277.711 -552.433
lowerback 1.71862 7.98283 -2.74394
upperback -8.68618 9.92843 -4.44913
thorax -9.8536 4.74423 -4.21116
lowerneck -0.26696 -4.45628 -6.38724
upperneck 7.79208 -6.64034 9.46719
head 2.87442 -3.26135 3.70694
rclavicle -1.63003e-014 2.8625e-014
rhumerus -65.8426 -24.6676 -67.4177
rradius 69.6008
rwrist 7.78302
rhand -2.7899 39.2628
rfingers 7.12502
rthumb 22.9156 10.6046
lclavicle -1.63003e-014 2.8625e-014
lhumerus -66.5981 38.5494 25.0287
lradius 72.5879
lwrist -17.3219
lhand -42.2956 43.6075
lfingers 7.12502
lthumb -15.1799 73.0306
rfemur -17.2466 -14.244 35.0852
rtibia 41.1922
rfoot -6.84964 20.9808
rtoes -26.8056
lfemur -42.7368 6.24914 -37.4677
ltibia 58.296
lfoot 4.66074 1.94697
ltoes -17.6495
594
root 1.00963 15.6101 -1.18369 561.412 278.882 -557.411
lowerback 2.66575 7.84409 -4.15342
upperback -8.19412 9.58331 -4.68375
thorax -10.0924 4.66 -3.79087
lowerneck -0.691755 -4.05368 -6.62355
upperneck 7.31763 -6.07567 10.0959
head 2.78222 -2.962 3.95338
rclavicle 1.7334e-013 -3.65764e-014
rhumerus -65.035 -24.883 -68.1471
rradius 69.5829
rwrist 6.35152
rhand -2.53034 38.5864
rfingers 7.12502
rthumb 23.1646 9.95925
lclavicle 1.7334e-013 -3.65764e-014
lhumerus -67.2564 38.744 23.313
lradius 71.3866
lwrist -17.802
lhand -41.6895 42.5289
lfingers 7.12502
lthumb -14.596 71.9953
rfemur -18.04 -15.0796 34.1628
rtibia 44.3384
rfoot -6.95557 19.1614
rtoes -33.3807
lfemur -42.3163 6.28176 -37.3452
ltibia 59.0113
lfoot 4.91037 1.02811
ltoes -21.8935
595
root 0.984563 15.6033 -1.28574 562.383 279.643 -559.346
lowerback 3.63772 7.72172 -4.67396
upperback -7.63742 9.33234 -4.84988
thorax -10.1152 4.56549 -3.7545
lowerneck -0.798379 -3.77472 -6.27162
upperneck 6.60463 -5.62457 9.93446
head 2.53649 -2.73606 3.86489
rclavicle -2.68359e-014 2.8625e-014
rhumerus -64.8957 -25.3555 -68.6822
rradius 69.6482
rwrist 6.43808
rhand -3.97302 38.6324
rfingers 7.12502
rthumb 21.7799 9.83782
lclavicle -2.68359e-014 2.8625e-014
lhumerus -67.3797 38.7852 22.3297
lradius 70.5376
lwrist -18.3055
lhand -40.9342 41.5539
lfingers 7.12502
lthumb -13.8683 71.0715
rfemur -18.4802 -16.4116 33.4384
rtibia 47.2177
rfoot -7.06319 17.2957
rtoes -39.1823
lfemur -41.5934 6.60209 -37.0344
ltibia 59.5464
lfoot 5.18573 -0.331205
ltoes -26.2993
596
root 0.96453 15.6129 -1.3678 561.342 280.25 -559.042
lowerback 4.4749 7.63516 -4.52588
upperback -7.3156 9.17983 -5.01351
thorax -10.2006 4.46897 -4.07706
lowerneck -1.22934 -3.37656 -6.85125
upperneck 6.80742 -5.13371 10.8277
head 2.6618 -2.46999 4.24402
rclavicle 3.39922e-014 -3.18055e-014
rhumerus -65.2055 -25.7509 -68.9674
rradius 70.2484
rwrist 6.40996
rhand -3.26089 38.4622
rfingers 7.12502
rthumb 22.4636 9.74866
lclavicle 3.39922e-014 -3.18055e-014
lhumerus -67.0914 38.5927 21.7158
lradius 69.898
lwrist -18.638
lhand -40.7618 41.124
lfingers 7.12502
lthumb -13.7021 70.6529
rfemur -19.1757 -18.027 33.0156
rtibia 50.071
rfoot -6.91819 15.9592
rtoes -40.0436
lfemur -41.0637 7.26042 -36.5948
ltibia 59.9361
lfoot 5.55045 -0.551668
ltoes -24.3346
597
root 0.946643 15.5974 -1.43256 559.888 280.816 -557.845
lowerback 4.8026 7.57611 -4.07032
upperback -7.24488 9.10975 -5.20453
thorax -10.2066 4.39139 -4.54821
lowerneck -1.29626 -3.05088 -6.76403
upperneck 6.97547 -4.71585 10.9152
head 2.68392 -2.255 4.27105
rclavicle -4.96962e-015 -1.43125e-014
rhumerus -65.4078 -25.7787 -69.2546
rradius 70.5601
rwrist 6.82733
rhand -2.35599 38.0358
rfingers 7.12502
rthumb 23.3319 9.42979
lclavicle -4.96962e-015 -1.43125e-014
lhumerus -66.5976 38.353 21.3377
lradius 69.5628
lwrist -18.9825
lhand -40.8231 41.276
lfingers 7.12502
lthumb -13.7611 70.8009
rfemur -20.537 -19.959 33.0764
rtibia 52.8585
rfoot -7.30631 14.6881
rtoes -39.6891
lfemur -41.1731 7.70471 -36.2212
ltibia 60.4008
lfoot 5.82123 -0.713748
ltoes -23.7972
598
root 0.929847 15.5985 -1.48698 559.343 281.306 -557.199
lowerback 4.5752 7.50153 -3.61439
upperback -7.23743 9.04986 -5.39354
thorax -9.9553 4.32718 -4.93791
lowerneck -1.32003 -2.76668 -6.68143
upperneck 7.18205 -4.34383 10.824
head 2.71111 -2.06763 4.24258
rclavicle -3.67752e-014 -1.59028e-014
rhumerus -65.579 -25.7176 -69.4417
rradius 70.6974
rwrist 8.04043
rhand -1.73365 37.6442
rfingers 7.12502
rthumb 23.9288 9.1152
lclavicle -3.67752e-014 -1.59028e-014
lhumerus -66.1389 38.3882 21.0905
lradius 69.5672
lwrist -19.3996
lhand -40.5815 40.834
lfingers 7.12502
lthumb -13.5283 70.3746
rfemur -22.2031 -21.1845 32.696
rtibia 56.1004
rfoot -8.13368 12.7683
rtoes -37.4989
lfemur -41.4298 7.41929 -35.9904
ltibia 60.7112
lfoot 5.71016 -0.601556
ltoes -26.3981
